HIERARCHY
ROOT Hips
{
	OFFSET 0 0 0
	CHANNELS 6 Xposition Yposition Zposition Yrotation Xrotation Zrotation
	JOINT Spine
	{
		OFFSET -0 8.23869 -2.62608
		CHANNELS 3 Yrotation Xrotation Zrotation
		JOINT Spine1
		{
			OFFSET -0 7.92598 0
			CHANNELS 3 Yrotation Xrotation Zrotation
			JOINT Spine2
			{
				OFFSET -0 7.92598 0
				CHANNELS 3 Yrotation Xrotation Zrotation
				JOINT Spine3
				{
					OFFSET -0 7.92598 0
					CHANNELS 3 Yrotation Xrotation Zrotation
					JOINT Neck
					{
						OFFSET -0 15.3347 3.62608
						CHANNELS 3 Yrotation Xrotation Zrotation
						JOINT Head
						{
							OFFSET -0 10.2984 0
							CHANNELS 3 Yrotation Xrotation Zrotation
							End Site
							{
								OFFSET 0 15 0
							}
						}
					}
					JOINT LeftShoulder
					{
						OFFSET 1.71639 3.24826 3.43279
						CHANNELS 3 Yrotation Xrotation Zrotation
						JOINT LeftArm
						{
							OFFSET 19.515 0 0
							CHANNELS 3 Yrotation Xrotation Zrotation
							JOINT LeftForeArm
							{
								OFFSET 23.117 0 0
								CHANNELS 3 Yrotation Xrotation Zrotation
								JOINT LeftHand
								{
									OFFSET 24.3821 0 0
									CHANNELS 3 Yrotation Xrotation Zrotation
									JOINT LeftHandThumb1
									{
										OFFSET 4.89344 0 2.57866
										CHANNELS 3 Yrotation Xrotation Zrotation
										JOINT LeftHandThumb2
										{
											OFFSET 3 0 1
											CHANNELS 3 Yrotation Xrotation Zrotation
											JOINT LeftHandThumb3
											{
												OFFSET 2.1 0 0
												CHANNELS 3 Yrotation Xrotation Zrotation
												JOINT LeftHandThumb4
												{
													OFFSET 1.305 0 0
													CHANNELS 3 Yrotation Xrotation Zrotation
													End Site
													{
														OFFSET -0 0 0
													}
												}
											}
										}
									}
									JOINT LeftHandIndex1
									{
										OFFSET 9.17063 0 3.39553
										CHANNELS 3 Yrotation Xrotation Zrotation
										JOINT LeftHandIndex2
										{
											OFFSET 3.5 0 0
											CHANNELS 3 Yrotation Xrotation Zrotation
											JOINT LeftHandIndex3
											{
												OFFSET 2.45 0 0
												CHANNELS 3 Yrotation Xrotation Zrotation
												JOINT LeftHandIndex4
												{
													OFFSET 1.5225 0 0
													CHANNELS 3 Yrotation Xrotation Zrotation
													End Site
													{
														OFFSET -0 0 0
													}
												}
											}
										}
									}
									JOINT LeftHandMiddle1
									{
										OFFSET 9.21351 0 0.900721
										CHANNELS 3 Yrotation Xrotation Zrotation
										JOINT LeftHandMiddle2
										{
											OFFSET 4.6 0 0
											CHANNELS 3 Yrotation Xrotation Zrotation
											JOINT LeftHandMiddle3
											{
												OFFSET 3.22 0 0
												CHANNELS 3 Yrotation Xrotation Zrotation
												JOINT LeftHandMiddle4
												{
													OFFSET 2.001 0 0
													CHANNELS 3 Yrotation Xrotation Zrotation
													End Site
													{
														OFFSET -0 0 0
													}
												}
											}
										}
									}
									JOINT LeftHandRing1
									{
										OFFSET 8.95639 0 -1.59409
										CHANNELS 3 Yrotation Xrotation Zrotation
										JOINT LeftHandRing2
										{
											OFFSET 3.75 0 0
											CHANNELS 3 Yrotation Xrotation Zrotation
											JOINT LeftHandRing3
											{
												OFFSET 2.625 0 0
												CHANNELS 3 Yrotation Xrotation Zrotation
												JOINT LeftHandRing4
												{
													OFFSET 1.63125 0 0
													CHANNELS 3 Yrotation Xrotation Zrotation
													End Site
													{
														OFFSET -0 0 0
													}
												}
											}
										}
									}
									JOINT LeftHandPinky1
									{
										OFFSET 8.39928 0 -4.08889
										CHANNELS 3 Yrotation Xrotation Zrotation
										JOINT LeftHandPinky2
										{
											OFFSET 2.875 0 0
											CHANNELS 3 Yrotation Xrotation Zrotation
											JOINT LeftHandPinky3
											{
												OFFSET 2.0125 0 0
												CHANNELS 3 Yrotation Xrotation Zrotation
												JOINT LeftHandPinky4
												{
													OFFSET 1.25062 0 0
													CHANNELS 3 Yrotation Xrotation Zrotation
													End Site
													{
														OFFSET -0 0 0
													}
												}
											}
										}
									}
								}
							}
						}
					}
					JOINT RightShoulder
					{
						OFFSET -1.71639 3.24826 3.43279
						CHANNELS 3 Yrotation Xrotation Zrotation
						JOINT RightArm
						{
							OFFSET -19.515 0 0
							CHANNELS 3 Yrotation Xrotation Zrotation
							JOINT RightForeArm
							{
								OFFSET -23.117 0 0
								CHANNELS 3 Yrotation Xrotation Zrotation
								JOINT RightHand
								{
									OFFSET -24.3821 0 0
									CHANNELS 3 Yrotation Xrotation Zrotation
									JOINT RightHandThumb1
									{
										OFFSET -4.44833 0 2.59928
										CHANNELS 3 Yrotation Xrotation Zrotation
										JOINT RightHandThumb2
										{
											OFFSET -3 0 1
											CHANNELS 3 Yrotation Xrotation Zrotation
											JOINT RightHandThumb3
											{
												OFFSET -2.1 0 0
												CHANNELS 3 Yrotation Xrotation Zrotation
												JOINT RightHandThumb4
												{
													OFFSET -1.305 0 0
													CHANNELS 3 Yrotation Xrotation Zrotation
													End Site
													{
														OFFSET -0 0 0
													}
												}
											}
										}
									}
									JOINT RightHandIndex1
									{
										OFFSET -7.73763 0 3.41549
										CHANNELS 3 Yrotation Xrotation Zrotation
										JOINT RightHandIndex2
										{
											OFFSET -3.5 0 0
											CHANNELS 3 Yrotation Xrotation Zrotation
											JOINT RightHandIndex3
											{
												OFFSET -2.45 0 0
												CHANNELS 3 Yrotation Xrotation Zrotation
												JOINT RightHandIndex4
												{
													OFFSET -1.5225 0 0
													CHANNELS 3 Yrotation Xrotation Zrotation
													End Site
													{
														OFFSET -0 0 0
													}
												}
											}
										}
									}
									JOINT RightHandMiddle1
									{
										OFFSET -8.14217 0 1.11673
										CHANNELS 3 Yrotation Xrotation Zrotation
										JOINT RightHandMiddle2
										{
											OFFSET -4.6 0 0
											CHANNELS 3 Yrotation Xrotation Zrotation
											JOINT RightHandMiddle3
											{
												OFFSET -3.22 0 0
												CHANNELS 3 Yrotation Xrotation Zrotation
												JOINT RightHandMiddle4
												{
													OFFSET -2.001 0 0
													CHANNELS 3 Yrotation Xrotation Zrotation
													End Site
													{
														OFFSET -0 0 0
													}
												}
											}
										}
									}
									JOINT RightHandRing1
									{
										OFFSET -8.24672 0 -1.18204
										CHANNELS 3 Yrotation Xrotation Zrotation
										JOINT RightHandRing2
										{
											OFFSET -3.75 0 0
											CHANNELS 3 Yrotation Xrotation Zrotation
											JOINT RightHandRing3
											{
												OFFSET -2.625 0 0
												CHANNELS 3 Yrotation Xrotation Zrotation
												JOINT RightHandRing4
												{
													OFFSET -1.63125 0 0
													CHANNELS 3 Yrotation Xrotation Zrotation
													End Site
													{
														OFFSET -0 0 0
													}
												}
											}
										}
									}
									JOINT RightHandPinky1
									{
										OFFSET -8.05126 0 -3.4808
										CHANNELS 3 Yrotation Xrotation Zrotation
										JOINT RightHandPinky2
										{
											OFFSET -2.875 0 0
											CHANNELS 3 Yrotation Xrotation Zrotation
											JOINT RightHandPinky3
											{
												OFFSET -2.0125 0 0
												CHANNELS 3 Yrotation Xrotation Zrotation
												JOINT RightHandPinky4
												{
													OFFSET -1.25062 0 0
													CHANNELS 3 Yrotation Xrotation Zrotation
													End Site
													{
														OFFSET -0 0 0
													}
												}
											}
										}
									}
								}
							}
						}
					}
				}
			}
		}
	}
	JOINT LeftUpLeg
	{
		OFFSET 10.2984 -3.43279 3
		CHANNELS 3 Yrotation Xrotation Zrotation
		JOINT LeftLeg
		{
			OFFSET -0 -43.8423 2.40295
			CHANNELS 3 Yrotation Xrotation Zrotation
			JOINT LeftFoot
			{
				OFFSET -0 -38.9759 -2.40295
				CHANNELS 3 Yrotation Xrotation Zrotation
				JOINT LeftToeBase
				{
					OFFSET -0 -9.09429 9.70353
					CHANNELS 3 Yrotation Xrotation Zrotation
					End Site
					{
						OFFSET 0 0 5
					}
				}
			}
		}
	}
	JOINT RightUpLeg
	{
		OFFSET -10.2984 -3.43279 3
		CHANNELS 3 Yrotation Xrotation Zrotation
		JOINT RightLeg
		{
			OFFSET -0 -43.8423 2.40295
			CHANNELS 3 Yrotation Xrotation Zrotation
			JOINT RightFoot
			{
				OFFSET -0 -38.9759 -2.40295
				CHANNELS 3 Yrotation Xrotation Zrotation
				JOINT RightToeBase
				{
					OFFSET -0 -9.09429 9.70353
					CHANNELS 3 Yrotation Xrotation Zrotation
					End Site
					{
						OFFSET 0 0 5
					}
				}
			}
		}
	}
}
MOTION
Frames: 4
Frame Time: 0.0047619
0 95.736452 0 0 0 0 0 0 0 0 0 0 0 0 0 0 0 0 0 0 0 0 0 0 0 0 0 0 0 0 0 0 0 0 0 0 0 0 0 0 0 0 0 0 0 0 0 0 0 0 0 0 0 0 0 0 0 0 0 0 0 0 0 0 0 0 0 0 0 0 0 0 0 0 0 0 0 0 0 0 0 0 0 0 0 0 0 0 0 0 0 0 0 0 0 0 0 0 0 0 0 0 0 0 0 0 0 0 0 0 0 0 0 0 0 0 0 0 0 0 0 0 0 0 0 0 0 0 0 0 0 0 0 0 0 0 0 0 0 0 0 0 0 0 0 0 0 0 0 0 0 0 0 0 0 0 0 0 0 0 0 0 0 0 0 0 0 0 0 0 0 0 0 0 0 0 0 0 0 0 0 0 0 0 0 0 0 0 0 0 0 0
-31.271967 95.546039 8.727969 1.544564 0.555726 0.248424 -0.290083 -0.376731 -0.386378 -0.269539 -0.242491 -0.249398 -0.224858 -0.018597 -0.100047 -0.194174 0.137648 -0.056134 0.766943 -0.465384 0.860670 0.311286 1.251064 -1.402731 8.752133 1.132022 12.133212 -22.939477 0.775893 -3.801809 -12.270159 0.537839 4.928426 22.412561 7.063473 -33.317058 25.946432 11.475236 -1.682410 29.896930 13.218578 -1.474833 -12.998742 -2.930264 -18.530376 -0.000005 -0.000003 -3.659776 -0.000005 -0.000003 -3.659776 -0.000005 -0.000001 -2.927819 -0.000009 -0.000001 -1.463906 -0.000004 -0.000004 -5.857480 -0.000004 -0.000004 -5.857480 -0.000002 0.000001 -4.685981 0.000004 0.000000 -2.342992 -0.000006 -0.000005 -0.436006 -0.000006 -0.000005 -0.436006 -0.000002 -0.000002 -0.348806 -0.000008 -0.000002 -0.174402 0.000007 -0.000003 -0.583686 0.000007 -0.000003 -0.583686 -0.000006 -0.000003 -0.466948 -0.000003 0.000003 -0.233470 -172.592047 -0.005848 -179.909669 -8.734517 3.332964 -10.031017 25.696325 2.096689 0.664818 4.727441 5.816816 0.740297 -13.001389 -7.143579 32.612692 -15.272374 20.108588 -23.156586 -18.414179 22.500584 -27.316951 -60.801021 24.715428 3.673039 -0.000005 -0.000001 -12.499997 -0.000005 -0.000001 -12.499997 0.000002 -0.000000 -10.000001 -0.000002 -0.000002 -4.999999 -0.000002 0.000001 -12.499755 -0.000002 0.000001 -12.499755 -0.000007 -0.000001 -9.999801 0.000001 -0.000003 -4.999902 -0.000027 0.000002 14.219102 -0.000027 0.000002 14.219102 -0.000024 -0.000008 11.375276 -0.000008 -0.000000 5.687633 0.000020 0.000003 22.011740 0.000020 0.000003 22.011740 0.000020 0.000012 17.609399 0.000003 0.000007 8.804682 25.946432 11.475236 -1.682410 11.997890 6.497837 4.009908 0.000000 -0.271108 0.000000 9.890825 -0.764005 0.279987 0.000000 -8.108192 0.000000 -6.670205 6.582864 -6.859942 0.000000 -2.446420 0.000000 -19.770167 0.565809 3.833857 0.000000 -5.782951 0.000000
-31.272559 95.543719 8.737417 1.543720 0.557864 0.245966 -0.300150 -0.364827 -0.384616 -0.279986 -0.252390 -0.250213 -0.211436 0.023260 -0.104280 -0.181906 0.064477 -0.046113 0.752232 -0.482295 0.872959 0.303654 1.321178 -1.414668 8.772724 1.156428 12.137257 -22.966610 0.761526 -3.798540 -12.255326 0.487234 4.931270 22.385241 7.105680 -33.313218 25.946432 11.475236 -1.682410 29.896930 13.218578 -1.474833 -12.998742 -2.930264 -18.530376 -0.000005 -0.000003 -3.659776 -0.000005 -0.000003 -3.659776 -0.000005 -0.000001 -2.927819 -0.000009 -0.000001 -1.463906 -0.000004 -0.000004 -5.857480 -0.000004 -0.000004 -5.857480 -0.000002 0.000001 -4.685981 0.000004 0.000000 -2.342992 -0.000006 -0.000005 -0.436006 -0.000006 -0.000005 -0.436006 -0.000002 -0.000002 -0.348806 -0.000008 -0.000002 -0.174402 0.000007 -0.000003 -0.583686 0.000007 -0.000003 -0.583686 -0.000006 -0.000003 -0.466948 -0.000003 0.000003 -0.233470 -172.592047 -0.005848 -179.909669 -8.753545 3.294345 -10.017853 25.695479 2.178714 0.653113 4.734307 5.832704 0.764265 -12.991868 -7.171219 32.589087 -15.272374 20.108588 -23.156586 -18.414179 22.500584 -27.316951 -60.801021 24.715428 3.673039 -0.000005 -0.000001 -12.499997 -0.000005 -0.000001 -12.499997 0.000002 -0.000000 -10.000001 -0.000002 -0.000002 -4.999999 -0.000002 0.000001 -12.499755 -0.000002 0.000001 -12.499755 -0.000007 -0.000001 -9.999801 0.000001 -0.000003 -4.999902 -0.000027 0.000002 14.219102 -0.000027 0.000002 14.219102 -0.000024 -0.000008 11.375276 -0.000008 -0.000000 5.687633 0.000020 0.000003 22.011740 0.000020 0.000003 22.011740 0.000020 0.000012 17.609399 0.000003 0.000007 8.804682 25.946432 11.475236 -1.682410 11.997950 6.502067 4.010799 0.000000 -0.276014 0.000000 9.861326 -0.768041 0.328928 0.000000 -8.137540 0.000000 -6.675601 6.584344 -6.855091 0.000000 -2.434460 0.000000 -19.761655 0.522989 3.838087 0.000000 -5.742560 0.000000
-31.271521 95.543768 8.748165 1.530212 0.559870 0.249760 -0.289449 -0.371066 -0.385028 -0.268962 -0.250050 -0.248266 -0.226724 -0.030593 -0.099323 -0.196181 0.134261 -0.054442 0.764632 -0.436467 0.850388 0.310837 1.213506 -1.379140 8.763994 1.144342 12.126641 -22.926036 0.753076 -3.779047 -12.254382 0.449419 4.914151 22.496543 6.924658 -33.262280 25.986208 11.508201 -1.656399 29.943676 13.255328 -1.442859 -13.002915 -2.861893 -18.401374 0.000004 -0.000001 -3.648802 0.000004 -0.000001 -3.648802 -0.000000 -0.000000 -2.919044 0.000011 0.000001 -1.459520 0.000007 -0.000001 -5.836175 0.000007 -0.000001 -5.836175 0.000014 -0.000004 -4.668942 0.000008 0.000002 -2.334473 -0.000001 -0.000001 -0.435752 -0.000001 -0.000001 -0.435752 -0.000004 0.000001 -0.348597 -0.000000 -0.000003 -0.174301 -0.000022 -0.000001 -0.608742 -0.000022 -0.000001 -0.608742 -0.000020 -0.000001 -0.486996 0.000001 0.000003 -0.243497 -172.592070 -0.005848 -179.909669 -8.763672 3.322606 -10.023419 25.721042 2.155791 0.640436 4.725794 5.774836 0.749481 -13.003677 -7.135979 32.574243 -15.144956 20.082909 -23.016900 -18.261690 22.480019 -27.150614 -60.925696 24.826383 3.601548 -0.000002 -0.000000 -12.499996 -0.000002 -0.000000 -12.499996 -0.000002 -0.000001 -10.000002 0.000000 -0.000000 -4.999997 0.000000 -0.000002 -12.499936 0.000000 -0.000002 -12.499936 -0.000007 0.000000 -9.999955 0.000003 -0.000001 -4.999979 -0.000005 0.000001 14.199020 -0.000005 0.000001 14.199020 -0.000008 -0.000006 11.359205 0.000001 0.000003 5.679607 0.000008 0.000005 22.054350 0.000008 0.000005 22.054350 0.000002 0.000001 17.643477 0.000003 0.000004 8.821738 25.986208 11.508201 -1.656399 12.030184 6.502244 4.011221 0.000000 -0.259861 0.000000 9.854813 -0.784009 0.294496 0.000000 -8.065134 0.000000 -6.653218 6.589841 -6.858412 0.000000 -2.436949 0.000000 -19.786392 0.524775 3.826817 0.000000 -5.741448 0.000000
